<svg id="eW2fQLYgpaz1" xmlns="http://www.w3.org/2000/svg" xmlns:xlink="http://www.w3.org/1999/xlink" viewBox="0 0 300 300" shape-rendering="geometricPrecision" text-rendering="geometricPrecision" project-id="6f80b27eca714e6d98b9956a06c999f2" export-id="d135e5a852c24afcb7d8b62c66a1b1e4" cached="false"><defs><linearGradient id="eW2fQLYgpaz3-fill" x1="180.297" y1="-10.2052" x2="150.236" y2="44.5259" spreadMethod="pad" gradientUnits="userSpaceOnUse" gradientTransform="translate(0 0)"><stop id="eW2fQLYgpaz3-fill-0" offset="0%" stop-color="#3fd2e2"/><stop id="eW2fQLYgpaz3-fill-1" offset="100%" stop-color="#23737c"/></linearGradient><linearGradient id="eW2fQLYgpaz4-fill" x1="186.433" y1="6.18444" x2="174.856" y2="56.0684" spreadMethod="pad" gradientUnits="userSpaceOnUse" gradientTransform="translate(0 0)"><stop id="eW2fQLYgpaz4-fill-0" offset="0%" stop-color="#3fd2e2"/><stop id="eW2fQLYgpaz4-fill-1" offset="100%" stop-color="#23737c"/></linearGradient></defs><g transform="matrix(5 0 0 5 -734.0472 10)"><path d="M178.819,31.148c-7.493,7.5227-6.568,15.0587-3.165,20.7347-7.817-3.3334-15.035-16.5494-5.035-28.5494C181.286,12.6667,179.286,8,179.286,4c3.333,6,8.541,18.1067-.467,27.148Z" fill="url(#eW2fQLYgpaz3-fill)"/><path d="M177.281,52c-1.595-3.4573-3.259-11.82,1.573-16.6667c8.704-8.9733,7.307-16.836,7.113-17.3106L185.953,18c.004,0,.009.008.014.0227.359.5653,7.186,11.64,2.16,23.9773c2.9-1.6747,4.134-3.9613,4.492-4.6667-1.501,12.1654-9.176,14.168-15.338,14.6667Zm-2.662-35.3333c-4,2.444-13.042,8.6666-13.576,16.6666-.533,8,4,11.3334,6.667,14-1.333-2-4-6.9333-4-13.3333s7.353-14.444,10.909-17.3333Z" fill="url(#eW2fQLYgpaz4-fill)"/><path d="M176.953,26.5833c-.895-.4883-2.153-1.25-3.334-1.25-1.75,0-3.333,1.0392-3.333,4.1667c0,4.0825.88,7.0083,2.226,8.7808.477.63,1.641.4342,2.139-.1966.332-.4209.682-1.1992,1.052-2.3342.243-.6425.743-1.2533,1.25-1.25.501,0,1.008.6142,1.25,1.25.369,1.135.72,1.9125,1.051,2.3333.498.6325,1.667.8275,2.139.1975c1.346-1.7725,2.226-4.6975,2.226-8.7808c0-3.1167-1.59-4.1667-3.333-4.1667-1.186,0-2.433.7592-3.333,1.25Zm0,0l2.5,1.25-2.5-1.25Z" fill="#b5fbea"/><path d="M176.953,26.5833c-.895-.4883-2.153-1.25-3.334-1.25-1.75,0-3.333,1.0392-3.333,4.1667c0,4.0825.88,7.0083,2.226,8.7808.477.63,1.641.4342,2.139-.1966.332-.4209.682-1.1992,1.052-2.3342.243-.6425.743-1.2533,1.25-1.25.501,0,1.008.6142,1.25,1.25.369,1.135.72,1.9125,1.051,2.3333.498.6325,1.667.8275,2.139.1975c1.346-1.7725,2.226-4.6975,2.226-8.7808c0-3.1167-1.59-4.1667-3.333-4.1667-1.186,0-2.433.7592-3.333,1.25Zm0,0l2.5,1.25" fill="none" stroke="#153e43" stroke-width="1.66667" stroke-linecap="round" stroke-linejoin="round"/></g></svg>
