<svg width="200" height="56" viewBox="0 0 200 56" fill="none" xmlns="http://www.w3.org/2000/svg">
<path d="M18.152 52.288C16.824 52.288 15.592 52.072 14.456 51.64C13.336 51.208 12.36 50.6 11.528 49.816C10.712 49.032 10.072 48.112 9.608 47.056C9.16 46 8.936 44.848 8.936 43.6C8.936 42.352 9.16 41.2 9.608 40.144C10.072 39.088 10.72 38.168 11.552 37.384C12.384 36.6 13.36 35.992 14.48 35.56C15.6 35.128 16.816 34.912 18.128 34.912C19.456 34.912 20.672 35.128 21.776 35.56C22.896 35.992 23.864 36.6 24.68 37.384C25.512 38.168 26.16 39.088 26.624 40.144C27.088 41.184 27.32 42.336 27.32 43.6C27.32 44.848 27.088 46.008 26.624 47.08C26.16 48.136 25.512 49.056 24.68 49.84C23.864 50.608 22.896 51.208 21.776 51.64C20.672 52.072 19.464 52.288 18.152 52.288ZM18.128 48.976C18.88 48.976 19.568 48.848 20.192 48.592C20.832 48.336 21.392 47.968 21.872 47.488C22.352 47.008 22.72 46.44 22.976 45.784C23.248 45.128 23.384 44.4 23.384 43.6C23.384 42.8 23.248 42.072 22.976 41.416C22.72 40.76 22.352 40.192 21.872 39.712C21.408 39.232 20.856 38.864 20.216 38.608C19.576 38.352 18.88 38.224 18.128 38.224C17.376 38.224 16.68 38.352 16.04 38.608C15.416 38.864 14.864 39.232 14.384 39.712C13.904 40.192 13.528 40.76 13.256 41.416C13 42.072 12.872 42.8 12.872 43.6C12.872 44.384 13 45.112 13.256 45.784C13.528 46.44 13.896 47.008 14.36 47.488C14.84 47.968 15.4 48.336 16.04 48.592C16.68 48.848 17.376 48.976 18.128 48.976ZM35.522 52.192C34.306 52.192 33.21 51.92 32.234 51.376C31.258 50.816 30.482 50.04 29.906 49.048C29.346 48.056 29.066 46.888 29.066 45.544C29.066 44.184 29.346 43.008 29.906 42.016C30.482 41.024 31.258 40.256 32.234 39.712C33.21 39.168 34.306 38.896 35.522 38.896C36.61 38.896 37.562 39.136 38.378 39.616C39.194 40.096 39.826 40.824 40.274 41.8C40.722 42.776 40.946 44.024 40.946 45.544C40.946 47.048 40.73 48.296 40.298 49.288C39.866 50.264 39.242 50.992 38.426 51.472C37.626 51.952 36.658 52.192 35.522 52.192ZM36.17 49.12C36.778 49.12 37.33 48.976 37.826 48.688C38.322 48.4 38.714 47.992 39.002 47.464C39.306 46.92 39.458 46.28 39.458 45.544C39.458 44.792 39.306 44.152 39.002 43.624C38.714 43.096 38.322 42.688 37.826 42.4C37.33 42.112 36.778 41.968 36.17 41.968C35.546 41.968 34.986 42.112 34.49 42.4C33.994 42.688 33.594 43.096 33.29 43.624C33.002 44.152 32.858 44.792 32.858 45.544C32.858 46.28 33.002 46.92 33.29 47.464C33.594 47.992 33.994 48.4 34.49 48.688C34.986 48.976 35.546 49.12 36.17 49.12ZM39.554 52V49.36L39.626 45.52L39.386 41.704V34.192H43.13V52H39.554ZM52.7392 52.192C51.3632 52.192 50.1392 51.904 49.0672 51.328C48.0112 50.752 47.1712 49.968 46.5472 48.976C45.9392 47.968 45.6352 46.824 45.6352 45.544C45.6352 44.248 45.9392 43.104 46.5472 42.112C47.1712 41.104 48.0112 40.32 49.0672 39.76C50.1392 39.184 51.3632 38.896 52.7392 38.896C54.0992 38.896 55.3152 39.184 56.3872 39.76C57.4592 40.32 58.2992 41.096 58.9072 42.088C59.5152 43.08 59.8192 44.232 59.8192 45.544C59.8192 46.824 59.5152 47.968 58.9072 48.976C58.2992 49.968 57.4592 50.752 56.3872 51.328C55.3152 51.904 54.0992 52.192 52.7392 52.192ZM52.7392 49.12C53.3632 49.12 53.9232 48.976 54.4192 48.688C54.9152 48.4 55.3072 47.992 55.5952 47.464C55.8832 46.92 56.0272 46.28 56.0272 45.544C56.0272 44.792 55.8832 44.152 55.5952 43.624C55.3072 43.096 54.9152 42.688 54.4192 42.4C53.9232 42.112 53.3632 41.968 52.7392 41.968C52.1152 41.968 51.5552 42.112 51.0592 42.4C50.5632 42.688 50.1632 43.096 49.8592 43.624C49.5712 44.152 49.4272 44.792 49.4272 45.544C49.4272 46.28 49.5712 46.92 49.8592 47.464C50.1632 47.992 50.5632 48.4 51.0592 48.688C51.5552 48.976 52.1152 49.12 52.7392 49.12ZM70.1698 38.896C71.1938 38.896 72.1058 39.104 72.9058 39.52C73.7218 39.92 74.3618 40.544 74.8258 41.392C75.2898 42.224 75.5218 43.296 75.5218 44.608V52H71.7778V45.184C71.7778 44.144 71.5458 43.376 71.0818 42.88C70.6338 42.384 69.9938 42.136 69.1618 42.136C68.5698 42.136 68.0338 42.264 67.5538 42.52C67.0898 42.76 66.7218 43.136 66.4498 43.648C66.1938 44.16 66.0658 44.816 66.0658 45.616V52H62.3218V39.088H65.8978V42.664L65.2258 41.584C65.6898 40.72 66.3538 40.056 67.2178 39.592C68.0818 39.128 69.0658 38.896 70.1698 38.896ZM84.1955 52.192C82.6755 52.192 81.4915 51.808 80.6435 51.04C79.7955 50.256 79.3715 49.096 79.3715 47.56V36.232H83.1155V47.512C83.1155 48.056 83.2595 48.48 83.5475 48.784C83.8355 49.072 84.2275 49.216 84.7235 49.216C85.3155 49.216 85.8195 49.056 86.2355 48.736L87.2435 51.376C86.8595 51.648 86.3955 51.856 85.8515 52C85.3235 52.128 84.7715 52.192 84.1955 52.192ZM77.3795 42.256V39.376H86.3315V42.256H77.3795ZM95.0908 52.192C93.7148 52.192 92.4908 51.904 91.4188 51.328C90.3628 50.752 89.5228 49.968 88.8988 48.976C88.2908 47.968 87.9868 46.824 87.9868 45.544C87.9868 44.248 88.2908 43.104 88.8988 42.112C89.5228 41.104 90.3628 40.32 91.4188 39.76C92.4908 39.184 93.7148 38.896 95.0908 38.896C96.4508 38.896 97.6668 39.184 98.7388 39.76C99.8108 40.32 100.651 41.096 101.259 42.088C101.867 43.08 102.171 44.232 102.171 45.544C102.171 46.824 101.867 47.968 101.259 48.976C100.651 49.968 99.8108 50.752 98.7388 51.328C97.6668 51.904 96.4508 52.192 95.0908 52.192ZM95.0908 49.12C95.7148 49.12 96.2748 48.976 96.7708 48.688C97.2668 48.4 97.6588 47.992 97.9468 47.464C98.2348 46.92 98.3788 46.28 98.3788 45.544C98.3788 44.792 98.2348 44.152 97.9468 43.624C97.6588 43.096 97.2668 42.688 96.7708 42.4C96.2748 42.112 95.7148 41.968 95.0908 41.968C94.4668 41.968 93.9068 42.112 93.4108 42.4C92.9148 42.688 92.5148 43.096 92.2108 43.624C91.9228 44.152 91.7788 44.792 91.7788 45.544C91.7788 46.28 91.9228 46.92 92.2108 47.464C92.5148 47.992 92.9148 48.4 93.4108 48.688C93.9068 48.976 94.4668 49.12 95.0908 49.12ZM108.537 42.76H116.601V45.88H108.537V42.76ZM108.825 52H104.937V35.2H117.633V38.32H108.825V52ZM127.849 38.896C128.873 38.896 129.785 39.104 130.585 39.52C131.401 39.92 132.041 40.544 132.505 41.392C132.969 42.224 133.201 43.296 133.201 44.608V52H129.457V45.184C129.457 44.144 129.225 43.376 128.761 42.88C128.313 42.384 127.673 42.136 126.841 42.136C126.249 42.136 125.713 42.264 125.233 42.52C124.769 42.76 124.401 43.136 124.129 43.648C123.873 44.16 123.745 44.816 123.745 45.616V52H120.001V34.192H123.745V42.664L122.905 41.584C123.369 40.72 124.033 40.056 124.897 39.592C125.761 39.128 126.745 38.896 127.849 38.896ZM136.595 52V39.088H140.339V52H136.595ZM138.467 37.288C137.779 37.288 137.219 37.088 136.787 36.688C136.355 36.288 136.139 35.792 136.139 35.2C136.139 34.608 136.355 34.112 136.787 33.712C137.219 33.312 137.779 33.112 138.467 33.112C139.155 33.112 139.715 33.304 140.147 33.688C140.579 34.056 140.795 34.536 140.795 35.128C140.795 35.752 140.579 36.272 140.147 36.688C139.731 37.088 139.171 37.288 138.467 37.288ZM143.814 52V39.088H147.39V42.736L146.886 41.68C147.27 40.768 147.886 40.08 148.734 39.616C149.582 39.136 150.614 38.896 151.83 38.896V42.352C151.67 42.336 151.526 42.328 151.398 42.328C151.27 42.312 151.134 42.304 150.99 42.304C149.966 42.304 149.134 42.6 148.494 43.192C147.87 43.768 147.558 44.672 147.558 45.904V52H143.814Z" fill="#4A4A4A"/>
<path d="M178.819 31.148C171.326 38.6707 172.251 46.2067 175.654 51.8827C167.837 48.5493 160.619 35.3333 170.619 23.3333C181.286 12.6667 179.286 8 179.286 4C182.619 10 187.827 22.1067 178.819 31.148Z" fill="url(#paint0_linear_27_8)"/>
<path d="M177.281 52C175.686 48.5427 174.022 40.18 178.854 35.3333C187.558 26.36 186.161 18.4973 185.967 18.0227L185.953 18C185.957 18 185.962 18.008 185.967 18.0227C186.326 18.588 193.153 29.6627 188.127 42C191.027 40.3253 192.261 38.0387 192.619 37.3333C191.118 49.4987 183.443 51.5013 177.281 52ZM174.619 16.6667C170.619 19.1107 161.577 25.3333 161.043 33.3333C160.51 41.3333 165.043 44.6667 167.71 47.3333C166.377 45.3333 163.71 40.4 163.71 34C163.71 27.6 171.063 19.556 174.619 16.6667Z" fill="url(#paint1_linear_27_8)"/>
<path d="M176.953 26.5833C176.058 26.095 174.8 25.3333 173.619 25.3333C171.869 25.3333 170.286 26.3725 170.286 29.5C170.286 33.5825 171.166 36.5083 172.512 38.2808C172.989 38.9108 174.153 38.715 174.651 38.0842C174.983 37.6633 175.333 36.885 175.703 35.75C175.946 35.1075 176.446 34.4967 176.953 34.5C177.454 34.5 177.961 35.1142 178.203 35.75C178.572 36.885 178.923 37.6625 179.254 38.0833C179.752 38.7158 180.921 38.9108 181.393 38.2808C182.739 36.5083 183.619 33.5833 183.619 29.5C183.619 26.3833 182.029 25.3333 180.286 25.3333C179.1 25.3333 177.853 26.0925 176.953 26.5833ZM176.953 26.5833L179.453 27.8333L176.953 26.5833Z" fill="#B5FBEA"/>
<path d="M176.953 26.5833C176.058 26.095 174.8 25.3333 173.619 25.3333C171.869 25.3333 170.286 26.3725 170.286 29.5C170.286 33.5825 171.166 36.5083 172.512 38.2808C172.989 38.9108 174.153 38.715 174.651 38.0842C174.983 37.6633 175.333 36.885 175.703 35.75C175.946 35.1075 176.446 34.4967 176.953 34.5C177.454 34.5 177.961 35.1142 178.203 35.75C178.572 36.885 178.923 37.6625 179.254 38.0833C179.752 38.7158 180.921 38.9108 181.393 38.2808C182.739 36.5083 183.619 33.5833 183.619 29.5C183.619 26.3833 182.029 25.3333 180.286 25.3333C179.1 25.3333 177.853 26.0925 176.953 26.5833ZM176.953 26.5833L179.453 27.8333" stroke="#153E43" stroke-width="1.66667" stroke-linecap="round" stroke-linejoin="round"/>
<defs>
<linearGradient id="paint0_linear_27_8" x1="180.297" y1="-10.2052" x2="150.236" y2="44.5259" gradientUnits="userSpaceOnUse">
<stop stop-color="#3FD2E2"/>
<stop offset="1" stop-color="#23737C"/>
</linearGradient>
<linearGradient id="paint1_linear_27_8" x1="186.433" y1="6.18444" x2="174.856" y2="56.0684" gradientUnits="userSpaceOnUse">
<stop stop-color="#3FD2E2"/>
<stop offset="1" stop-color="#23737C"/>
</linearGradient>
</defs>
</svg>
